<svg xmlns="http://www.w3.org/2000/svg" width="820" height="190" viewBox="0 0 820 190" role="img" aria-labelledby="title desc">
  <title id="title">digistrategija.lt logotipas</title>
  <desc id="desc">Moderni žalia ikona su strategijos tinklo motyvu ir tekstu digistrategija.lt</desc>
  <defs>
    <linearGradient id="iconBg" x1="0" y1="0" x2="1" y2="1">
      <stop offset="0%" stop-color="#25a08f"/>
      <stop offset="100%" stop-color="#156f63"/>
    </linearGradient>
    <linearGradient id="iconGlow" x1="0" y1="0" x2="1" y2="1">
      <stop offset="0%" stop-color="#9fe6d8" stop-opacity="0.7"/>
      <stop offset="100%" stop-color="#ffffff" stop-opacity="0.05"/>
    </linearGradient>
  </defs>

  <g transform="translate(14 14)">
    <rect x="0" y="0" width="162" height="162" rx="38" fill="url(#iconBg)"/>
    <rect x="9" y="9" width="144" height="144" rx="30" fill="url(#iconGlow)" opacity="0.34"/>
    <path d="M38 104 C 48 66, 73 46, 103 42 C 122 40, 134 46, 140 58" fill="none" stroke="#ffffff" stroke-width="8" stroke-linecap="round"/>
    <path d="M34 124 C 52 132, 72 136, 91 132 C 109 128, 125 116, 136 98" fill="none" stroke="#dff8f2" stroke-width="8" stroke-linecap="round"/>
    <circle cx="40" cy="103" r="7" fill="#ffffff"/>
    <circle cx="104" cy="42" r="7" fill="#ffffff"/>
    <circle cx="138" cy="58" r="7" fill="#ffffff"/>
    <circle cx="34" cy="124" r="7" fill="#d86b4b"/>
    <circle cx="91" cy="132" r="7" fill="#ffffff"/>
    <circle cx="136" cy="98" r="7" fill="#ffffff"/>
  </g>

  <text x="206" y="103" font-family="Fraunces, Georgia, serif" font-size="66" font-weight="700" letter-spacing="0.3" fill="#1c1a16">
    digistrategija.lt
  </text>
</svg>
